<svg width="60" height="58" viewBox="0 0 60 58" fill="none" xmlns="http://www.w3.org/2000/svg">
<g clip-path="url(#clip0_0_102)">
<path fill-rule="evenodd" clip-rule="evenodd" d="M9 51.2C8.25 51.2 7.5 50.5571 7.5 49.6999C7.5 48.9499 8.14286 48.2 9 48.2C9.75 48.2 10.5 48.8428 10.5 49.6999C10.5 50.5571 9.85714 51.2 9 51.2Z" stroke="#3BB9B8" stroke-width="2" stroke-miterlimit="10"/>
<path fill-rule="evenodd" clip-rule="evenodd" d="M53.5 52.3999C53.5 50.7999 52.7 49.3999 51.4 48.5999L51.5 48.2999C53.7 47.8999 55.3 45.8999 55.3 43.6999" stroke="#3BB9B8" stroke-width="2" stroke-miterlimit="10"/>
<path d="M16.6 25.8999H4.79999C3.14314 25.8999 1.79999 27.243 1.79999 28.8999V53.9999C1.79999 55.6568 3.14313 56.9999 4.79999 56.9999H21.2" stroke="#3BB9B8" stroke-width="2" stroke-miterlimit="10"/>
</g>
<defs>
<clipPath id="clip0_0_102">
<rect width="60" height="58" fill="white"/>
</clipPath>
</defs>
</svg>
