<svg width="42" height="34" viewBox="0 0 42 34" fill="none" xmlns="http://www.w3.org/2000/svg">
<path d="M41.1087 0H13.8859C11.9697 0 10.0791 0.427579 8.23958 1.28274C7.56253 1.5937 6.9238 1.94354 6.31062 2.35816C5.81241 2.65617 5.10981 3.21332 4.20282 4.04256C1.4052 6.93196 0 10.3396 0 14.2785V18.8783C0 22.0398 0.919767 24.9032 2.74653 27.4428C3.09144 27.9092 3.57687 28.4664 4.20282 29.1142C4.82877 29.6973 5.3653 30.1638 5.82519 30.5136C8.34177 32.2757 11.0117 33.1568 13.8476 33.1568H41.0703V13.1642H21.3079C21.0652 13.1642 20.7842 13.1902 20.4904 13.2549C19.6728 13.54 19.0979 14.0065 18.753 14.6413C18.4081 15.056 18.242 15.7038 18.242 16.5978V20.4979H32.1663V24.5923H13.6688C13.3238 24.5923 12.8129 24.4886 12.1614 24.2813C11.8292 24.1647 11.4715 23.9833 11.1011 23.763C10.7945 23.5557 10.424 23.2577 10.0025 22.882C8.99327 21.7547 8.48229 20.4849 8.48229 19.0726V14.0971C8.48229 12.931 8.83998 11.8426 9.5809 10.832C10.7434 9.34195 12.2252 8.59045 13.9881 8.59045H41.1087V0Z" fill="#2B7BC6"/>
</svg>
